<svg width="184" height="76" viewBox="0 0 184 76" fill="none" xmlns="http://www.w3.org/2000/svg">
    <path d="M102.602 62.6069C105.1 62.6069 105.607 61.7017 105.1 60.005C102.939 52.7792 104.228 45.5139 107.051 38.6817C108.047 36.1007 110.038 35.4626 110.737 35.2714C111.02 35.1939 111.219 35.1395 111.337 34.947C112.629 32.8412 113.613 30.99 114.276 29.2324C114.359 29.0112 114.214 28.7716 113.979 28.7524C111.432 28.5445 109.362 29.8728 108.047 30.8655C107.544 29.0103 106.049 27.9231 104.353 27.6856C102.834 27.4727 101.257 27.4692 100.926 28.0967C100.608 28.6976 100.926 29.182 102.088 31.4422C102.767 32.7639 102.728 33.7044 101.706 35.4006C97.1359 42.9817 95.4852 53.5953 98.4386 62.2868C98.4733 62.461 98.6267 62.5872 98.8045 62.5881L102.602 62.6069Z" fill="#1C1C1C"/>
    <path d="M50.8903 50.5992C49.9569 55.4835 50.0561 63.3482 50.11 65.6909C50.1189 66.07 49.9978 66.3061 49.4506 66.4175C47.9829 66.7165 44.7029 66.8202 43.5514 66.8481C43.3306 66.8535 43.1553 66.6697 43.1712 66.4495C43.2575 65.2485 43.8104 58.994 44.2078 55.1989C43.7365 55.1989 43.3595 58.1362 42.5111 59.0635C35.8489 66.3451 30.2728 68.0708 25.5193 67.1623C21.4592 66.3864 15.961 62.8273 17.8108 53.147C20.982 36.552 32.2368 30.618 38.9936 31.8507C43.4534 32.6644 46.5277 34.6108 46.5277 34.6108C45.7742 36.4646 45.1753 39.2209 44.8399 40.977C44.7059 41.6788 43.818 41.9829 43.2648 41.5312C41.8717 40.3933 40.2904 39.0863 38.1373 38.6749C31.5714 37.4202 24.8542 47.6828 23.4922 53.8728C22.1618 59.8898 25.0754 61.0437 26.6631 61.1695C33.8151 61.8086 40.1256 53.1778 46.1556 44.7089C48.6778 34.1411 51.4658 26.4496 57.2157 17.495C58.9682 14.7656 63.6651 10.7083 66.7917 10.0871C68.2148 9.80431 68.4961 9.8373 69.7845 9.92308C71.3226 10.0254 71.4687 10.6591 70.4974 11.6492C66.2791 15.9497 58.9893 24.2621 55.6236 32.9138C55.2577 33.8543 54.0938 36.4989 54.2936 36.5354C54.4935 36.5718 55.0288 35.5261 55.1742 35.2019C56.8432 31.4812 62.6865 29.4712 66.1726 30.1375C70.1755 30.9025 71.8231 35.8566 69.766 39.1442C67.2244 43.206 66.636 46.1271 66.1176 48.7738C65.188 53.5216 65.2353 58.6128 66.1127 63.3214C66.3067 64.3624 65.5516 65.2321 64.4984 65.3375L59.2242 65.8655C59.0185 65.886 58.8347 65.7386 58.8132 65.5331C57.9534 57.2922 58.6931 46.7293 63.6649 37.4126C63.8928 37.0733 63.7982 36.5973 63.4101 36.4695C60.2212 35.4198 56.4297 39.964 51.5948 47.0663C51.3433 48.2664 51.1107 49.4464 50.8903 50.5992Z" fill="#1C1C1C"/>
    <path fill-rule="evenodd" clip-rule="evenodd" d="M99.7697 32.012C100.064 32.7127 100.147 33.1876 99.7697 33.897C95.3908 40.118 94.2553 45.4912 93.8165 50.7808C93.309 56.8959 93.8325 60.6155 94.005 62.2792C94.0253 62.4758 93.8821 62.6425 93.6856 62.6647L91.3655 62.9287C88.1284 63.3053 88.3643 59.5349 87.893 59.2522C87.5657 59.0559 87.0446 61.3219 86.2076 61.7972C83.3459 63.4222 79.5819 64.073 77.2145 63.679C73.353 63.0361 67.5998 59.3628 69.1309 50.1653C71.7555 34.3983 82.1593 28.1387 88.5839 29.1529C90.375 29.4357 91.197 29.7142 92.4401 30.1879C92.9157 30.3691 93.2228 30.8805 93.0343 32.6715C93.2043 32.374 94.6929 29.2044 94.8686 28.9009C96.366 26.3127 98.5441 29.0892 99.7697 32.012ZM90.7728 36.7186C89.8278 36.1973 88.8408 35.7786 87.9284 35.6267C81.6839 34.5872 76.0321 44.8956 74.8836 50.7808C74.0323 55.1424 76.7275 57.5302 78.2172 57.6277C81.153 57.8198 84.9215 56.2428 87.5207 53.7666C87.6816 52.5527 87.6509 51.3089 87.8977 49.8264C88.3532 44.4587 89.15 40.3157 90.7728 36.7186Z" fill="#1C1C1C"/>
    <path d="M133.209 21.2341C133.962 20.0605 134.752 19.2032 137.227 18.4025C140.07 17.4829 143.888 18.1393 140.643 22.5903C139.843 23.6875 139.772 23.9152 139.386 24.3102C139.218 24.4826 138.993 24.5912 138.755 24.6346C133.364 25.6189 131.297 24.2131 133.209 21.2341Z" fill="#1C1C1C"/>
    <path d="M170.443 55.5356C170.475 55.2851 170.736 55.132 170.966 55.2363C172.795 56.0656 176.3 57.9413 177.68 61.0996C178.905 64.6245 179.572 69.7408 173.915 65.6471C170.896 63.4619 168.794 63.6278 169.385 61.1004C169.908 58.8649 170.19 57.5684 170.443 55.5356Z" fill="#1C1C1C"/>
    <path fill-rule="evenodd" clip-rule="evenodd" d="M151.485 44.2233C158.731 39.7722 160.66 28.7847 150.544 26.9391C143.891 25.6677 134.162 32.9418 130.509 47.8686C128.626 48.3129 127.631 48.2935 127.209 47.4359C126.54 46.0746 127.804 42.0497 129.136 39.2672C131.933 33.4234 133.472 32.1981 136.3 28.6158C137.619 26.9448 134.491 26.6473 131.933 27.4274C128.221 28.5594 125.837 31.8206 123.386 36.5336C121.372 40.4077 119.857 44.8083 119.521 47.4363C118.857 52.6289 122.95 53.7854 125.128 53.5266C126.766 53.332 128.274 53.1603 129.718 52.9623C129.672 58.1687 132.31 62.2833 135.982 64.4962C138.168 65.8135 140.629 64.295 142.596 62.6692C147.507 58.6113 153.84 59.3205 158.869 60.2251C159.056 60.2586 159.234 60.1506 159.291 59.9755C159.302 59.9415 159.311 59.9085 159.327 59.8763C159.886 58.6937 160.678 55.5362 160.678 52.6901C160.695 52.4971 160.561 52.3231 160.37 52.2899C153.526 51.0988 147.099 51.9623 139.676 57.8965C139.392 58.1234 139.016 58.2358 138.681 58.0955C136.873 57.3398 135.509 55.3057 136.03 51.5385C137.305 51.3494 138.387 51.0289 140.098 50.3378C144.108 48.7176 148.52 46.363 151.485 44.2233ZM137.223 45.5328C138.575 44.9867 139.951 44.4132 141.277 43.874C144.698 42.4829 147.705 40.8498 149.446 38.6984C150.946 36.4878 151.454 33.9113 149.345 33.5085C144.075 32.5014 139.565 39.8766 137.223 45.5328Z" fill="#1C1C1C"/>
    <path fill-rule="evenodd" clip-rule="evenodd" d="M134.409 10.0213C133.829 4.95297 132.567 0.103044 123.085 0.000752845C116.585 -0.0693764 109.154 4.77067 107.908 10.0585C106.634 17.0408 111.362 20.7168 116.47 21.6486C117.873 21.9047 119.612 21.8685 121.442 21.5514C113.39 33.9914 110.464 40.458 109.719 46.9951C108.672 56.1809 114.808 61.5516 120.18 62.4539C123.292 62.8713 125.743 63.2483 128.844 63.5662L128.847 63.5669C129.763 63.7894 130.628 62.9489 130.198 62.081C129.045 59.7494 127.722 57.27 122.921 56.7476C119.427 56.3673 115.428 53.9255 116.155 47.3983C116.843 41.2279 120.09 34.0938 131.426 16.7562C136.233 15.3519 142.458 14.132 148.847 15.3527C155.862 16.693 159.016 17.4496 166.317 18.4374C168.47 18.7287 169.642 18.3284 170.836 17.9207C171.524 17.6856 172.22 17.4479 173.116 17.3389C166.384 24.4114 165.345 32.9917 164.024 43.9047C163.543 47.8838 163.024 52.173 162.178 56.8122C160.109 68.1519 153.425 69.865 144.667 68.5791C142.121 68.2051 139.59 67.7379 136.97 67.2542C131.176 66.1845 124.947 65.0343 117.149 64.6362C100.555 63.7888 82.3759 65.5686 65.6989 67.2016C47.9524 68.9391 31.9067 70.5101 21.2818 68.5717C15.9437 67.5978 12.979 64.4539 11.6006 62.4675C10.9713 61.5607 9.85787 61.0108 8.78557 61.2722L0.291337 63.2057C0.0416612 63.2666 -0.0773887 63.5526 0.0542545 63.7733C0.10704 63.8619 0.160825 63.9526 0.215872 64.0456C2.02636 67.1009 5.77228 72.4679 19.5037 74.9729C27.5374 76.4386 39.2963 75.313 54.6727 73.841C71.2619 72.2528 92.0616 70.2616 116.936 70.6867C123.764 70.8034 129.691 72.0017 135.084 73.0922C137.075 73.4947 138.993 73.8825 140.857 74.1958C155.272 76.6189 165.319 75.0264 168.766 56.1336C169.297 53.2259 169.588 50.3072 169.882 47.3597C171.043 35.7254 173.806 22.3326 183.573 14.5982C184.268 14.047 184.08 12.9894 183.258 12.6453C180.943 11.6754 178.46 10.2868 175.919 11.3315C173.353 12.3869 168.893 12.9334 166.317 12.4413C160.877 11.4018 155.48 10.1518 150.04 9.11247C146.842 8.50148 139.632 8.67397 134.409 10.0213ZM122.161 5.0642C128.494 4.77671 128.796 8.58725 126.362 13.1347C123.827 15.153 119.374 16.1344 117.209 15.7397C115.045 15.3447 113.426 13.9156 113.897 11.3295C114.574 7.62279 119.473 5.18617 122.161 5.0642Z" fill="#1C1C1C"/>
</svg>
